<svg viewBox="0 0 600 600" xmlns="http://www.w3.org/2000/svg" xmlns:xlink="http://www.w3.org/1999/xlink" width="600" height="600" preserveAspectRatio="xMidYMid meet" data-source="5svg-stamp"><g><g><circle cx="300" cy="300" r="243.7875" fill="none" stroke="#1B49AC" stroke-width="7.425" stroke-linecap="butt" transform="rotate(-90 300 300)"/></g><g><circle cx="300" cy="300" r="235.125" fill="none" stroke="#1B49AC" stroke-width="4.75" stroke-linecap="butt" transform="rotate(-90 300 300)"/></g><g><circle cx="300" cy="300" r="187.15" fill="none" stroke="#1B49AC" stroke-width="5.7" stroke-linecap="butt" transform="rotate(-90 300 300)"/></g><g><g><g transform="translate(130 130) scale(1.36 1.36) translate(0 0)"><g x="125" y="125" s="62" al="0" transform="translate(47.5, 47.5) rotate(0 77.5 77.5) scale(0.62) " id="inl0-Img13" layer="13"><path fill="#1B49AC" fill-rule="nonzero" d="M230.03 87.15c-0.99,-7.45 -1.13,-20.28 5.78,-24.59 0.13,-0.07 0.22,-0.19 0.33,-0.29 5.65,-1.81 9.57,-4.34 6.5,-7.76l-83.44 -25.14 -135.09 18.78c0,0 -15.47,2.21 -14.09,26.25 0.75,13.08 4.85,19.51 8.44,22.67l-11.09 3.34c-3.07,3.41 0.84,5.95 6.5,7.76 0.1,0.1 0.19,0.21 0.32,0.29 6.91,4.31 6.78,17.14 5.79,24.59 -24.84,7.05 -15.93,9.35 -15.93,9.35l5.45 1.32c-3.83,3.46 -7.64,10.03 -6.92,22.49 1.38,24.03 14.09,25.68 14.09,25.68l88.4 28.74 133.44 -32.32c0,0 8.92,-2.3 -15.92,-9.36 -1,-7.43 -1.14,-20.26 5.79,-24.58 0.13,-0.08 0.22,-0.2 0.32,-0.29 5.66,-1.81 9.57,-4.35 6.5,-7.76l-5.8 -1.76c3.87,-2.33 9.68,-8.42 10.59,-24.26 0.62,-10.89 -2.22,-17.27 -5.51,-21.03l11.47 -2.77c0,0 8.92,-2.3 -15.92,-9.35zm-111.62 -0.31l22.44 -4.61 75.84 -15.58 11.29 -2.33c-3.61,6.61 -3.46,15.65 -2.86,21.46 0.13,1.32 0.28,2.52 0.43,3.43l-12.37 3.08 -95.71 23.81 0.94 -29.26zm-96.39 23.39l11.3 2.32 72.82 14.97 6.37 1.31 0 0 0 0 19.08 3.92 0.94 29.25 -98.37 -24.47 -9.7 -2.41c0.14,-0.92 0.29,-2.12 0.43,-3.43 0.59,-5.81 0.74,-14.85 -2.87,-21.46zm-4.39 -36.99c-0.13,-6.39 1.01,-11.01 3.31,-13.36 1.46,-1.5 3.19,-1.82 4.38,-1.82 0.63,0 1.08,0.09 1.11,0.09l58.21 18.98 29.04 9.47 -0.95 29.46 -81.48 -22.85 -4.3 -1.2c-0.16,-0.04 -0.37,-0.08 -0.53,-0.08 -0.34,-0.03 -8.4,-0.77 -8.79,-18.69zm87.65 134.63l-85.77 -24.05c-0.16,-0.05 -0.37,-0.08 -0.53,-0.09 -0.34,-0.02 -8.4,-0.76 -8.79,-18.67 -0.14,-6.4 1,-11.02 3.3,-13.38 1.47,-1.5 3.2,-1.81 4.38,-1.81 0.63,0 1.08,0.09 1.12,0.09 0,0 0,0 0,0l87.24 28.44 -0.95 29.47zm112.4 -30.28c0.13,1.32 0.28,2.52 0.43,3.43l-108.08 26.89 0.94 -29.26 23.11 -4.75 3.41 0.83 12.79 -4.16 58.96 -12.12 11.3 -2.32c-3.61,6.61 -3.46,15.65 -2.86,21.46zm5.95 -39.76c-0.2,0 -0.39,0.03 -0.58,0.09l-8.15 2.28 -77.62 21.76 -0.95 -29.46 25.47 -8.3 61.66 -20.11c0.01,0 3.24,-0.72 5.62,1.69 2.3,2.35 3.44,6.98 3.3,13.37 -0.4,17.91 -8.46,18.66 -8.75,18.68z"/></g></g></g></g><g><g transform="rotate(180 300 300)" data-stamp-arc-layer="5"><text x="502.47610982200325" y="332.0690653332473" fill="#1B49AC" font-size="30" font-family="Arial" font-weight="bold" font-style="normal" text-anchor="middle" dominant-baseline="alphabetic" transform="rotate(99.00000000000001 502.47610982200325 332.0690653332473)" data-stamp-arc-text="5">E</text><text x="492.88055763561624" y="369.44127365028476" fill="#1B49AC" font-size="30" font-family="Arial" font-weight="bold" font-style="normal" text-anchor="middle" dominant-baseline="alphabetic" transform="rotate(109.8 492.88055763561624 369.44127365028476)" data-stamp-arc-text="5">X</text><text x="476.45211553580845" y="404.3534902288261" fill="#1B49AC" font-size="30" font-family="Arial" font-weight="bold" font-style="normal" text-anchor="middle" dominant-baseline="alphabetic" transform="rotate(120.60000000000001 476.45211553580845 404.3534902288261)" data-stamp-arc-text="5">P</text><text x="453.7727692742442" y="435.56893239134865" fill="#1B49AC" font-size="30" font-family="Arial" font-weight="bold" font-style="normal" text-anchor="middle" dominant-baseline="alphabetic" transform="rotate(131.40000000000003 453.7727692742442 435.56893239134865)" data-stamp-arc-text="5">L</text><text x="425.64594599886027" y="461.98177753701646" fill="#1B49AC" font-size="30" font-family="Arial" font-weight="bold" font-style="normal" text-anchor="middle" dominant-baseline="alphabetic" transform="rotate(142.2 425.64594599886027 461.98177753701646)" data-stamp-arc-text="5">O</text><text x="393.068052446607" y="482.65633745861544" fill="#1B49AC" font-size="30" font-family="Arial" font-weight="bold" font-style="normal" text-anchor="middle" dominant-baseline="alphabetic" transform="rotate(153.00000000000003 393.068052446607 482.65633745861544)" data-stamp-arc-text="5">R</text><text x="357.19317673804204" y="496.8602055637733" fill="#1B49AC" font-size="30" font-family="Arial" font-weight="bold" font-style="normal" text-anchor="middle" dominant-baseline="alphabetic" transform="rotate(163.79999999999998 357.19317673804204 496.8602055637733)" data-stamp-arc-text="5">E</text><text x="319.2922042302955" y="504.0902027436314" fill="#1B49AC" font-size="30" font-family="Arial" font-weight="bold" font-style="normal" text-anchor="middle" dominant-baseline="alphabetic" transform="rotate(174.59999999999997 319.2922042302955 504.0902027436314)" data-stamp-arc-text="5"> </text><text x="280.7077957697046" y="504.0902027436314" fill="#1B49AC" font-size="30" font-family="Arial" font-weight="bold" font-style="normal" text-anchor="middle" dominant-baseline="alphabetic" transform="rotate(185.4 280.7077957697046 504.0902027436314)" data-stamp-arc-text="5">A</text><text x="242.80682326195807" y="496.8602055637733" fill="#1B49AC" font-size="30" font-family="Arial" font-weight="bold" font-style="normal" text-anchor="middle" dominant-baseline="alphabetic" transform="rotate(196.2 242.80682326195807 496.8602055637733)" data-stamp-arc-text="5">N</text><text x="206.931947553393" y="482.65633745861544" fill="#1B49AC" font-size="30" font-family="Arial" font-weight="bold" font-style="normal" text-anchor="middle" dominant-baseline="alphabetic" transform="rotate(206.99999999999997 206.931947553393 482.65633745861544)" data-stamp-arc-text="5">D</text><text x="174.35405400113987" y="461.98177753701657" fill="#1B49AC" font-size="30" font-family="Arial" font-weight="bold" font-style="normal" text-anchor="middle" dominant-baseline="alphabetic" transform="rotate(217.79999999999998 174.35405400113987 461.98177753701657)" data-stamp-arc-text="5"> </text><text x="146.22723072575587" y="435.5689323913487" fill="#1B49AC" font-size="30" font-family="Arial" font-weight="bold" font-style="normal" text-anchor="middle" dominant-baseline="alphabetic" transform="rotate(228.59999999999997 146.22723072575587 435.5689323913487)" data-stamp-arc-text="5">G</text><text x="123.54788446419161" y="404.3534902288262" fill="#1B49AC" font-size="30" font-family="Arial" font-weight="bold" font-style="normal" text-anchor="middle" dominant-baseline="alphabetic" transform="rotate(239.39999999999998 123.54788446419161 404.3534902288262)" data-stamp-arc-text="5">R</text><text x="107.11944236438384" y="369.44127365028487" fill="#1B49AC" font-size="30" font-family="Arial" font-weight="bold" font-style="normal" text-anchor="middle" dominant-baseline="alphabetic" transform="rotate(250.2 107.11944236438384 369.44127365028487)" data-stamp-arc-text="5">O</text><text x="97.52389017799678" y="332.06906533324735" fill="#1B49AC" font-size="30" font-family="Arial" font-weight="bold" font-style="normal" text-anchor="middle" dominant-baseline="alphabetic" transform="rotate(261 97.52389017799678 332.06906533324735)" data-stamp-arc-text="5">W</text></g></g><g><g transform="rotate(0 300 300)" data-stamp-arc-layer="6"><text x="173.65597112637897" y="478.574211094384" fill="#1B49AC" font-size="25" font-family="Arial" font-weight="bold" font-style="normal" text-anchor="middle" dominant-baseline="alphabetic" transform="rotate(35.28 173.65597112637897 478.574211094384)" data-stamp-arc-text="6">R</text><text x="189.83242464217727" y="488.9832475109327" fill="#1B49AC" font-size="25" font-family="Arial" font-weight="bold" font-style="normal" text-anchor="middle" dominant-baseline="alphabetic" transform="rotate(30.23999999999998 189.83242464217727 488.9832475109327)" data-stamp-arc-text="6">E</text><text x="206.8607799701403" y="497.93091772694174" fill="#1B49AC" font-size="25" font-family="Arial" font-weight="bold" font-style="normal" text-anchor="middle" dominant-baseline="alphabetic" transform="rotate(25.200000000000017 206.8607799701403 497.93091772694174)" data-stamp-arc-text="6">A</text><text x="224.60936055557448" y="505.348031361785" fill="#1B49AC" font-size="25" font-family="Arial" font-weight="bold" font-style="normal" text-anchor="middle" dominant-baseline="alphabetic" transform="rotate(20.15999999999994 224.60936055557448 505.348031361785)" data-stamp-arc-text="6">D</text><text x="242.9409204990851" y="511.17723349477865" fill="#1B49AC" font-size="25" font-family="Arial" font-weight="bold" font-style="normal" text-anchor="middle" dominant-baseline="alphabetic" transform="rotate(15.119999999999976 242.9409204990851 511.17723349477865)" data-stamp-arc-text="6">Y</text><text x="261.7137058491584" y="515.3734481782637" fill="#1B49AC" font-size="25" font-family="Arial" font-weight="bold" font-style="normal" text-anchor="middle" dominant-baseline="alphabetic" transform="rotate(10.079999999999984 261.7137058491584 515.3734481782637)" data-stamp-arc-text="6"> </text><text x="280.78255075452495" y="517.904227000069" fill="#1B49AC" font-size="25" font-family="Arial" font-weight="bold" font-style="normal" text-anchor="middle" dominant-baseline="alphabetic" transform="rotate(5.039999999999964 280.78255075452495 517.904227000069)" data-stamp-arc-text="6">F</text><text x="299.99999999999994" y="518.75" fill="#1B49AC" font-size="25" font-family="Arial" font-weight="bold" font-style="normal" text-anchor="middle" dominant-baseline="alphabetic" transform="rotate(0 299.99999999999994 518.75)" data-stamp-arc-text="6">O</text><text x="319.217449245475" y="517.904227000069" fill="#1B49AC" font-size="25" font-family="Arial" font-weight="bold" font-style="normal" text-anchor="middle" dominant-baseline="alphabetic" transform="rotate(-5.039999999999964 319.217449245475 517.904227000069)" data-stamp-arc-text="6">R</text><text x="338.2862941508415" y="515.3734481782637" fill="#1B49AC" font-size="25" font-family="Arial" font-weight="bold" font-style="normal" text-anchor="middle" dominant-baseline="alphabetic" transform="rotate(-10.079999999999984 338.2862941508415 515.3734481782637)" data-stamp-arc-text="6"> </text><text x="357.059079500915" y="511.17723349477865" fill="#1B49AC" font-size="25" font-family="Arial" font-weight="bold" font-style="normal" text-anchor="middle" dominant-baseline="alphabetic" transform="rotate(-15.120000000000061 357.059079500915 511.17723349477865)" data-stamp-arc-text="6">C</text><text x="375.39063944442563" y="505.34803136178493" fill="#1B49AC" font-size="25" font-family="Arial" font-weight="bold" font-style="normal" text-anchor="middle" dominant-baseline="alphabetic" transform="rotate(-20.160000000000025 375.39063944442563 505.34803136178493)" data-stamp-arc-text="6">L</text><text x="393.13922002985964" y="497.93091772694174" fill="#1B49AC" font-size="25" font-family="Arial" font-weight="bold" font-style="normal" text-anchor="middle" dominant-baseline="alphabetic" transform="rotate(-25.19999999999999 393.13922002985964 497.93091772694174)" data-stamp-arc-text="6">A</text><text x="410.16757535782267" y="488.98324751093276" fill="#1B49AC" font-size="25" font-family="Arial" font-weight="bold" font-style="normal" text-anchor="middle" dominant-baseline="alphabetic" transform="rotate(-30.24000000000001 410.16757535782267 488.98324751093276)" data-stamp-arc-text="6">S</text><text x="426.34402887362114" y="478.57421109438394" fill="#1B49AC" font-size="25" font-family="Arial" font-weight="bold" font-style="normal" text-anchor="middle" dominant-baseline="alphabetic" transform="rotate(-35.28000000000003 426.34402887362114 478.57421109438394)" data-stamp-arc-text="6">S</text></g></g><g/><g/><g/><g/><g/><g/></g>            </svg>